<svg xmlns="http://www.w3.org/2000/svg" xmlns:xlink="http://www.w3.org/1999/xlink" width="67" height="67" viewBox="0 0 67 67"><defs><style>.a{fill:#1f2532;}.b{fill:url(#a);}</style><linearGradient id="a" x1="0.5" x2="0.5" y2="1" gradientUnits="objectBoundingBox"><stop offset="0" stop-color="#01cb63"/><stop offset="1" stop-color="#00d768"/></linearGradient></defs><circle class="a" cx="33.5" cy="33.5" r="33.5" transform="translate(0 0)"/><g transform="translate(24.746 18.249)"><path class="b" d="M38.739.007,34.586,0c-4.666,0-7.681,3.093-7.681,7.881v3.634H22.73a.653.653,0,0,0-.653.653v5.265a.653.653,0,0,0,.653.653h4.176V31.372a.653.653,0,0,0,.653.653h5.448a.653.653,0,0,0,.653-.653V18.086h4.882a.653.653,0,0,0,.653-.653l0-5.265a.653.653,0,0,0-.653-.653H33.659V8.435c0-1.481.353-2.232,2.282-2.232h2.8a.653.653,0,0,0,.653-.653V.66A.653.653,0,0,0,38.739.007Z" transform="translate(-22.077)"/></g></svg>