<svg xmlns="http://www.w3.org/2000/svg" xmlns:xlink="http://www.w3.org/1999/xlink" width="66" height="67" viewBox="0 0 66 67"><defs><style>.a{fill:#1f2532;}.b{fill:url(#a);}</style><linearGradient id="a" x1="0.5" x2="0.5" y2="1" gradientUnits="objectBoundingBox"><stop offset="0" stop-color="#01cb63"/><stop offset="1" stop-color="#00d768"/></linearGradient></defs><g transform="translate(0.063)"><ellipse class="a" cx="33" cy="33.5" rx="33" ry="33.5" transform="translate(-0.063 0)"/><path class="b" d="M20.572.5A20.394,20.394,0,0,0,0,20.715,20.249,20.249,0,0,0,14.066,39.9c1.029.19,1.406-.435,1.406-.972,0-.48-.017-1.752-.026-3.437-5.722,1.219-6.929-2.712-6.929-2.712a5.389,5.389,0,0,0-2.289-2.957c-1.863-1.253.144-1.227.144-1.227a4.3,4.3,0,0,1,3.151,2.083c1.834,3.091,4.816,2.2,5.992,1.682a4.28,4.28,0,0,1,1.3-2.7c-4.569-.506-9.371-2.244-9.371-9.989a7.723,7.723,0,0,1,2.117-5.424,7.073,7.073,0,0,1,.18-5.35s1.723-.542,5.657,2.073a19.724,19.724,0,0,1,10.286,0c3.909-2.614,5.632-2.073,5.632-2.073a7.268,7.268,0,0,1,.206,5.35,7.755,7.755,0,0,1,2.109,5.424c0,7.766-4.809,9.475-9.386,9.972a4.8,4.8,0,0,1,1.389,3.741c0,2.705-.026,4.879-.026,5.536,0,.53.36,1.162,1.414.96A20.188,20.188,0,0,0,41.144,20.715,20.4,20.4,0,0,0,20.572.5Z" transform="translate(13.111 12.528)"/></g></svg>