<svg xmlns="http://www.w3.org/2000/svg" xmlns:xlink="http://www.w3.org/1999/xlink" width="67" height="67" viewBox="0 0 67 67"><defs><style>.a{fill:#1f2532;}.b{fill:url(#a);}</style><linearGradient id="a" x1="0.5" x2="0.5" y2="1" gradientUnits="objectBoundingBox"><stop offset="0" stop-color="#01cb63"/><stop offset="1" stop-color="#00d768"/></linearGradient></defs><circle class="a" cx="33.5" cy="33.5" r="33.5" transform="translate(0 0)"/><g transform="translate(18.405 18.976)"><path class="b" d="M29.113,26.614V37.377h-6.24V27.335c0-2.523-.9-4.244-3.161-4.244a3.414,3.414,0,0,0-3.2,2.283,4.27,4.27,0,0,0-.207,1.521V37.377H10.062s.084-17.009,0-18.771H16.3v2.661c-.013.02-.029.041-.041.061H16.3v-.061a6.2,6.2,0,0,1,5.625-3.1C26.035,18.165,29.113,20.848,29.113,26.614ZM3.532,9.558a3.253,3.253,0,1,0-.083,6.487h.042a3.254,3.254,0,1,0,.041-6.487ZM.371,37.377H6.61V18.607H.371Z" transform="translate(0 -9.558)"/></g></svg>