<svg xmlns="http://www.w3.org/2000/svg" xmlns:xlink="http://www.w3.org/1999/xlink" width="1761.874" height="870.668" viewBox="0 0 1761.874 870.668"><defs><style>.a{fill:#fff;stroke:#e6e6e6;stroke-width:5px;stroke-dasharray:6;}.b{fill:url(#a);}.c{fill:url(#b);}.d{fill:url(#c);}.e{fill:#202020;font-size:30px;font-family:NotoSans-Bold, Noto Sans;font-weight:700;}.f{fill:url(#e);}.g{fill:none;stroke:#fff;stroke-linecap:round;stroke-linejoin:round;stroke-width:3.5px;}.h{filter:url(#l);}.i{filter:url(#i);}.j{filter:url(#f);}</style><linearGradient id="a" x1="0.5" x2="0.5" y2="1" gradientUnits="objectBoundingBox"><stop offset="0" stop-color="#068041"/><stop offset="1" stop-color="#00d768"/></linearGradient><linearGradient id="b" x1="0.5" x2="-0.004" y2="1.029" gradientUnits="objectBoundingBox"><stop offset="0" stop-color="#01cb63"/><stop offset="1" stop-color="#00d768"/></linearGradient><linearGradient id="c" x1="0.5" x2="0.5" y2="1" gradientUnits="objectBoundingBox"><stop offset="0" stop-color="#01cb63"/><stop offset="1" stop-color="#009749"/></linearGradient><linearGradient id="e" x1="0.024" y1="0.047" x2="0.971" y2="1" xlink:href="#b"/><filter id="f" x="263.903" y="330.668" width="205" height="205" filterUnits="userSpaceOnUse"><feOffset dx="10" dy="20" input="SourceAlpha"/><feGaussianBlur stdDeviation="12.5" result="g"/><feFlood flood-color="#01cb63" flood-opacity="0.251"/><feComposite operator="in" in2="g"/><feComposite in="SourceGraphic"/></filter><filter id="i" x="1123.733" y="0" width="205" height="205" filterUnits="userSpaceOnUse"><feOffset dx="10" dy="20" input="SourceAlpha"/><feGaussianBlur stdDeviation="12.5" result="j"/><feFlood flood-color="#01cb63" flood-opacity="0.251"/><feComposite operator="in" in2="j"/><feComposite in="SourceGraphic"/></filter><filter id="l" x="1446.233" y="665.668" width="205" height="205" filterUnits="userSpaceOnUse"><feOffset dx="10" dy="20" input="SourceAlpha"/><feGaussianBlur stdDeviation="12.5" result="m"/><feFlood flood-color="#01cb63" flood-opacity="0.251"/><feComposite operator="in" in2="m"/><feComposite in="SourceGraphic"/></filter></defs><g transform="translate(2.403 -3312.832)"><path class="a" d="M8639.67,2853.8s89.678,313.027,553.673,290.359,475.4-388.57,849.74-371.49,450.2,589.4,96.782,726.329" transform="translate(-8639.67 601)"/><g transform="translate(-49.67 539.608)"><path class="b" d="M15.128,0,24.95,68.269l-3.7.029-3.557-4.131L8.838,68.28,0,68.361Z" transform="translate(733.452 3166.123) rotate(76)"/><path class="c" d="M0,0V30.838l62.447,6.168L0,43.173V74.011L83.262,37.005Z" transform="matrix(0.97, -0.242, 0.242, 0.97, 661.817, 3161.237)"/></g><g transform="translate(4900.564 2923.514) rotate(90)"><path class="d" d="M15.128,0,24.95,68.269l-3.7.029-3.557-4.131L8.838,68.28,0,68.361Z" transform="translate(733.452 3166.123) rotate(76)"/><path class="c" d="M0,0V30.838l62.447,6.168L0,43.173V74.011L83.262,37.005Z" transform="matrix(0.97, -0.242, 0.242, 0.97, 661.817, 3161.237)"/></g><text class="e" transform="translate(223 3575.832)"><tspan x="0" y="0">Refer The Course </tspan><tspan x="0" y="42">To Friends</tspan></text><text class="e" transform="translate(1133.83 3534.332)"><tspan x="0" y="0">Apply Referal Code</tspan><tspan x="0" y="42">At Signup</tspan></text><text class="e" transform="translate(1222.83 4051.5)"><tspan x="0" y="0">Earn Upto 80%</tspan><tspan x="0" y="42">On Courses</tspan></text><g transform="translate(0 -160)"><g class="j" transform="matrix(1, 0, 0, 1, -2.4, 3472.83)"><rect class="f" width="130" height="130" rx="10" transform="translate(291.4 348.17)"/></g><g transform="translate(324 3855.774)"><rect class="g" width="56" height="56" transform="translate(2 2.226)"/><path class="g" d="M11,7H27.8M11,21H27.8m-16.8,14H27.8" transform="translate(16.207 9.004)"/><line class="g" transform="translate(16 16.226)"/><line class="g" transform="translate(16 29.226)"/><line class="g" transform="translate(16 44.226)"/></g></g><g transform="translate(277.83 -373.668)"><g class="i" transform="matrix(1, 0, 0, 1, -280.23, 3686.5)"><rect class="f" width="130" height="130" rx="10" transform="translate(1151.23 17.5)"/></g><g transform="translate(903.452 3736)"><path class="g" d="M5,15H61M5,30.871H61" transform="translate(0 30.129)"/><rect class="g" width="56.456" height="24" transform="translate(4.548 5)"/></g></g><g transform="translate(0.33 -160)"><g class="h" transform="matrix(1, 0, 0, 1, -2.73, 3472.83)"><rect class="f" width="130" height="130" rx="10" transform="translate(1473.73 683.17)"/></g><g transform="translate(1504 4186.562)"><g transform="translate(14.621 3)"><path class="g" d="M12,50.024V4" transform="translate(5.702 -4)"/><path class="g" d="M7,3,24.7,20.7,42.4,3" transform="translate(-7 28.863)"/></g><path class="g" d="M60.645,21H4" transform="translate(0 45.726)"/></g></g></g></svg>