<svg xmlns="http://www.w3.org/2000/svg" width="1920" height="349" viewBox="0 0 1920 349"><defs><style>.a{fill:#f8f9fb;}.b{opacity:0.04;}.c{fill:#1f2532;}</style></defs><g transform="translate(0 -2748)"><rect class="a" width="1920" height="349" transform="translate(0 2748)"/><g class="b" transform="translate(3 4)"><path class="c" d="M4,0,8,7H0Z" transform="translate(29 2753)"/><path class="c" d="M4,0,8,7H0Z" transform="translate(57 2753)"/><path class="c" d="M4,0,8,7H0Z" transform="translate(85 2753)"/><path class="c" d="M4,0,8,7H0Z" transform="translate(113 2753)"/><path class="c" d="M4,0,8,7H0Z" transform="translate(141 2753)"/><path class="c" d="M4,0,8,7H0Z" transform="translate(169 2753)"/><path class="c" d="M4,0,8,7H0Z" transform="translate(197 2753)"/><path class="c" d="M4,0,8,7H0Z" transform="translate(225 2753)"/><path class="c" d="M4,0,8,7H0Z" transform="translate(253 2753)"/><path class="c" d="M4,0,8,7H0Z" transform="translate(281 2753)"/><path class="c" d="M4,0,8,7H0Z" transform="translate(309 2753)"/><path class="c" d="M4,0,8,7H0Z" transform="translate(337 2753)"/><path class="c" d="M4,0,8,7H0Z" transform="translate(365 2753)"/><path class="c" d="M4,0,8,7H0Z" transform="translate(393 2753)"/><path class="c" d="M4,0,8,7H0Z" transform="translate(421 2753)"/><path class="c" d="M4,0,8,7H0Z" transform="translate(449 2753)"/><path class="c" d="M4,0,8,7H0Z" transform="translate(477 2753)"/><path class="c" d="M4,0,8,7H0Z" transform="translate(505 2753)"/><path class="c" d="M4,0,8,7H0Z" transform="translate(533 2753)"/><path class="c" d="M4,0,8,7H0Z" transform="translate(561 2753)"/><path class="c" d="M4,0,8,7H0Z" transform="translate(589 2753)"/><path class="c" d="M4,0,8,7H0Z" transform="translate(617 2753)"/><path class="c" d="M4,0,8,7H0Z" transform="translate(645 2753)"/><path class="c" d="M4,0,8,7H0Z" transform="translate(673 2753)"/><path class="c" d="M4,0,8,7H0Z" transform="translate(701 2753)"/><path class="c" d="M4,0,8,7H0Z" transform="translate(729 2753)"/><path class="c" d="M4,0,8,7H0Z" transform="translate(757 2753)"/><path class="c" d="M4,0,8,7H0Z" transform="translate(785 2753)"/><path class="c" d="M4,0,8,7H0Z" transform="translate(813 2753)"/><path class="c" d="M4,0,8,7H0Z" transform="translate(841 2753)"/><path class="c" d="M4,0,8,7H0Z" transform="translate(869 2753)"/><path class="c" d="M4,0,8,7H0Z" transform="translate(897 2753)"/><path class="c" d="M4,0,8,7H0Z" transform="translate(925 2753)"/><path class="c" d="M4,0,8,7H0Z" transform="translate(953 2753)"/><path class="c" d="M4,0,8,7H0Z" transform="translate(981 2753)"/><path class="c" d="M4,0,8,7H0Z" transform="translate(1009 2753)"/><path class="c" d="M4,0,8,7H0Z" transform="translate(1037 2753)"/><path class="c" d="M4,0,8,7H0Z" transform="translate(1065 2753)"/><path class="c" d="M4,0,8,7H0Z" transform="translate(1093 2753)"/><path class="c" d="M4,0,8,7H0Z" transform="translate(1121 2753)"/><path class="c" d="M4,0,8,7H0Z" transform="translate(1149 2753)"/><path class="c" d="M4,0,8,7H0Z" transform="translate(1177 2753)"/><path class="c" d="M4,0,8,7H0Z" transform="translate(1205 2753)"/><path class="c" d="M4,0,8,7H0Z" transform="translate(1233 2753)"/><path class="c" d="M4,0,8,7H0Z" transform="translate(1261 2753)"/><path class="c" d="M4,0,8,7H0Z" transform="translate(1289 2753)"/><path class="c" d="M4,0,8,7H0Z" transform="translate(1317 2753)"/><path class="c" d="M4,0,8,7H0Z" transform="translate(1345 2753)"/><path class="c" d="M4,0,8,7H0Z" transform="translate(1373 2753)"/><path class="c" d="M4,0,8,7H0Z" transform="translate(1401 2753)"/><path class="c" d="M4,0,8,7H0Z" transform="translate(1429 2753)"/><path class="c" d="M4,0,8,7H0Z" transform="translate(1457 2753)"/><path class="c" d="M4,0,8,7H0Z" transform="translate(1485 2753)"/><path class="c" d="M4,0,8,7H0Z" transform="translate(1513 2753)"/><path class="c" d="M4,0,8,7H0Z" transform="translate(1541 2753)"/><path class="c" d="M4,0,8,7H0Z" transform="translate(1569 2753)"/><path class="c" d="M4,0,8,7H0Z" transform="translate(1597 2753)"/><path class="c" d="M4,0,8,7H0Z" transform="translate(1625 2753)"/><path class="c" d="M4,0,8,7H0Z" transform="translate(1653 2753)"/><path class="c" d="M4,0,8,7H0Z" transform="translate(1681 2753)"/><path class="c" d="M4,0,8,7H0Z" transform="translate(1709 2753)"/><path class="c" d="M4,0,8,7H0Z" transform="translate(1737 2753)"/><path class="c" d="M4,0,8,7H0Z" transform="translate(1765 2753)"/><path class="c" d="M4,0,8,7H0Z" transform="translate(1793 2753)"/><path class="c" d="M4,0,8,7H0Z" transform="translate(1821 2753)"/><path class="c" d="M4,0,8,7H0Z" transform="translate(1849 2753)"/><path class="c" d="M4,0,8,7H0Z" transform="translate(1877 2753)"/><path class="c" d="M4,0,8,7H0Z" transform="translate(29 2780)"/><path class="c" d="M4,0,8,7H0Z" transform="translate(57 2780)"/><path class="c" d="M4,0,8,7H0Z" transform="translate(85 2780)"/><path class="c" d="M4,0,8,7H0Z" transform="translate(113 2780)"/><path class="c" d="M4,0,8,7H0Z" transform="translate(141 2780)"/><path class="c" d="M4,0,8,7H0Z" transform="translate(169 2780)"/><path class="c" d="M4,0,8,7H0Z" transform="translate(197 2780)"/><path class="c" d="M4,0,8,7H0Z" transform="translate(225 2780)"/><path class="c" d="M4,0,8,7H0Z" transform="translate(253 2780)"/><path class="c" d="M4,0,8,7H0Z" transform="translate(281 2780)"/><path class="c" d="M4,0,8,7H0Z" transform="translate(309 2780)"/><path class="c" d="M4,0,8,7H0Z" transform="translate(337 2780)"/><path class="c" d="M4,0,8,7H0Z" transform="translate(365 2780)"/><path class="c" d="M4,0,8,7H0Z" transform="translate(393 2780)"/><path class="c" d="M4,0,8,7H0Z" transform="translate(421 2780)"/><path class="c" d="M4,0,8,7H0Z" transform="translate(449 2780)"/><path class="c" d="M4,0,8,7H0Z" transform="translate(477 2780)"/><path class="c" d="M4,0,8,7H0Z" transform="translate(505 2780)"/><path class="c" d="M4,0,8,7H0Z" transform="translate(533 2780)"/><path class="c" d="M4,0,8,7H0Z" transform="translate(561 2780)"/><path class="c" d="M4,0,8,7H0Z" transform="translate(589 2780)"/><path class="c" d="M4,0,8,7H0Z" transform="translate(617 2780)"/><path class="c" d="M4,0,8,7H0Z" transform="translate(645 2780)"/><path class="c" d="M4,0,8,7H0Z" transform="translate(673 2780)"/><path class="c" d="M4,0,8,7H0Z" transform="translate(701 2780)"/><path class="c" d="M4,0,8,7H0Z" transform="translate(729 2780)"/><path class="c" d="M4,0,8,7H0Z" transform="translate(757 2780)"/><path class="c" d="M4,0,8,7H0Z" transform="translate(785 2780)"/><path class="c" d="M4,0,8,7H0Z" transform="translate(813 2780)"/><path class="c" d="M4,0,8,7H0Z" transform="translate(841 2780)"/><path class="c" d="M4,0,8,7H0Z" transform="translate(869 2780)"/><path class="c" d="M4,0,8,7H0Z" transform="translate(897 2780)"/><path class="c" d="M4,0,8,7H0Z" transform="translate(925 2780)"/><path class="c" d="M4,0,8,7H0Z" transform="translate(953 2780)"/><path class="c" d="M4,0,8,7H0Z" transform="translate(981 2780)"/><path class="c" d="M4,0,8,7H0Z" transform="translate(1009 2780)"/><path class="c" d="M4,0,8,7H0Z" transform="translate(1037 2780)"/><path class="c" d="M4,0,8,7H0Z" transform="translate(1065 2780)"/><path class="c" d="M4,0,8,7H0Z" transform="translate(1093 2780)"/><path class="c" d="M4,0,8,7H0Z" transform="translate(1121 2780)"/><path class="c" d="M4,0,8,7H0Z" transform="translate(1149 2780)"/><path class="c" d="M4,0,8,7H0Z" transform="translate(1177 2780)"/><path class="c" d="M4,0,8,7H0Z" transform="translate(1205 2780)"/><path class="c" d="M4,0,8,7H0Z" transform="translate(1233 2780)"/><path class="c" d="M4,0,8,7H0Z" transform="translate(1261 2780)"/><path class="c" d="M4,0,8,7H0Z" transform="translate(1289 2780)"/><path class="c" d="M4,0,8,7H0Z" transform="translate(1317 2780)"/><path class="c" d="M4,0,8,7H0Z" transform="translate(1345 2780)"/><path class="c" d="M4,0,8,7H0Z" transform="translate(1373 2780)"/><path class="c" d="M4,0,8,7H0Z" transform="translate(1401 2780)"/><path class="c" d="M4,0,8,7H0Z" transform="translate(1429 2780)"/><path class="c" d="M4,0,8,7H0Z" transform="translate(1457 2780)"/><path class="c" d="M4,0,8,7H0Z" transform="translate(1485 2780)"/><path class="c" d="M4,0,8,7H0Z" transform="translate(1513 2780)"/><path class="c" d="M4,0,8,7H0Z" transform="translate(1541 2780)"/><path class="c" d="M4,0,8,7H0Z" transform="translate(1569 2780)"/><path class="c" d="M4,0,8,7H0Z" transform="translate(1597 2780)"/><path class="c" d="M4,0,8,7H0Z" transform="translate(1625 2780)"/><path class="c" d="M4,0,8,7H0Z" transform="translate(1653 2780)"/><path class="c" d="M4,0,8,7H0Z" transform="translate(1681 2780)"/><path class="c" d="M4,0,8,7H0Z" transform="translate(1709 2780)"/><path class="c" d="M4,0,8,7H0Z" transform="translate(1737 2780)"/><path class="c" d="M4,0,8,7H0Z" transform="translate(1765 2780)"/><path class="c" d="M4,0,8,7H0Z" transform="translate(1793 2780)"/><path class="c" d="M4,0,8,7H0Z" transform="translate(1821 2780)"/><path class="c" d="M4,0,8,7H0Z" transform="translate(1849 2780)"/><path class="c" d="M4,0,8,7H0Z" transform="translate(1877 2780)"/><path class="c" d="M4,0,8,7H0Z" transform="translate(29 2807)"/><path class="c" d="M4,0,8,7H0Z" transform="translate(57 2807)"/><path class="c" d="M4,0,8,7H0Z" transform="translate(85 2807)"/><path class="c" d="M4,0,8,7H0Z" transform="translate(113 2807)"/><path class="c" d="M4,0,8,7H0Z" transform="translate(141 2807)"/><path class="c" d="M4,0,8,7H0Z" transform="translate(169 2807)"/><path class="c" d="M4,0,8,7H0Z" transform="translate(197 2807)"/><path class="c" d="M4,0,8,7H0Z" transform="translate(225 2807)"/><path class="c" d="M4,0,8,7H0Z" transform="translate(253 2807)"/><path class="c" d="M4,0,8,7H0Z" transform="translate(281 2807)"/><path class="c" d="M4,0,8,7H0Z" transform="translate(309 2807)"/><path class="c" d="M4,0,8,7H0Z" transform="translate(337 2807)"/><path class="c" d="M4,0,8,7H0Z" transform="translate(365 2807)"/><path class="c" d="M4,0,8,7H0Z" transform="translate(393 2807)"/><path class="c" d="M4,0,8,7H0Z" transform="translate(421 2807)"/><path class="c" d="M4,0,8,7H0Z" transform="translate(449 2807)"/><path class="c" d="M4,0,8,7H0Z" transform="translate(477 2807)"/><path class="c" d="M4,0,8,7H0Z" transform="translate(505 2807)"/><path class="c" d="M4,0,8,7H0Z" transform="translate(533 2807)"/><path class="c" d="M4,0,8,7H0Z" transform="translate(561 2807)"/><path class="c" d="M4,0,8,7H0Z" transform="translate(589 2807)"/><path class="c" d="M4,0,8,7H0Z" transform="translate(617 2807)"/><path class="c" d="M4,0,8,7H0Z" transform="translate(645 2807)"/><path class="c" d="M4,0,8,7H0Z" transform="translate(673 2807)"/><path class="c" d="M4,0,8,7H0Z" transform="translate(701 2807)"/><path class="c" d="M4,0,8,7H0Z" transform="translate(729 2807)"/><path class="c" d="M4,0,8,7H0Z" transform="translate(757 2807)"/><path class="c" d="M4,0,8,7H0Z" transform="translate(785 2807)"/><path class="c" d="M4,0,8,7H0Z" transform="translate(813 2807)"/><path class="c" d="M4,0,8,7H0Z" transform="translate(841 2807)"/><path class="c" d="M4,0,8,7H0Z" transform="translate(869 2807)"/><path class="c" d="M4,0,8,7H0Z" transform="translate(897 2807)"/><path class="c" d="M4,0,8,7H0Z" transform="translate(925 2807)"/><path class="c" d="M4,0,8,7H0Z" transform="translate(953 2807)"/><path class="c" d="M4,0,8,7H0Z" transform="translate(981 2807)"/><path class="c" d="M4,0,8,7H0Z" transform="translate(1009 2807)"/><path class="c" d="M4,0,8,7H0Z" transform="translate(1037 2807)"/><path class="c" d="M4,0,8,7H0Z" transform="translate(1065 2807)"/><path class="c" d="M4,0,8,7H0Z" transform="translate(1093 2807)"/><path class="c" d="M4,0,8,7H0Z" transform="translate(1121 2807)"/><path class="c" d="M4,0,8,7H0Z" transform="translate(1149 2807)"/><path class="c" d="M4,0,8,7H0Z" transform="translate(1177 2807)"/><path class="c" d="M4,0,8,7H0Z" transform="translate(1205 2807)"/><path class="c" d="M4,0,8,7H0Z" transform="translate(1233 2807)"/><path class="c" d="M4,0,8,7H0Z" transform="translate(1261 2807)"/><path class="c" d="M4,0,8,7H0Z" transform="translate(1289 2807)"/><path class="c" d="M4,0,8,7H0Z" transform="translate(1317 2807)"/><path class="c" d="M4,0,8,7H0Z" transform="translate(1345 2807)"/><path class="c" d="M4,0,8,7H0Z" transform="translate(1373 2807)"/><path class="c" d="M4,0,8,7H0Z" transform="translate(1401 2807)"/><path class="c" d="M4,0,8,7H0Z" transform="translate(1429 2807)"/><path class="c" d="M4,0,8,7H0Z" transform="translate(1457 2807)"/><path class="c" d="M4,0,8,7H0Z" transform="translate(1485 2807)"/><path class="c" d="M4,0,8,7H0Z" transform="translate(1513 2807)"/><path class="c" d="M4,0,8,7H0Z" transform="translate(1541 2807)"/><path class="c" d="M4,0,8,7H0Z" transform="translate(1569 2807)"/><path class="c" d="M4,0,8,7H0Z" transform="translate(1597 2807)"/><path class="c" d="M4,0,8,7H0Z" transform="translate(1625 2807)"/><path class="c" d="M4,0,8,7H0Z" transform="translate(1653 2807)"/><path class="c" d="M4,0,8,7H0Z" transform="translate(1681 2807)"/><path class="c" d="M4,0,8,7H0Z" transform="translate(1709 2807)"/><path class="c" d="M4,0,8,7H0Z" transform="translate(1737 2807)"/><path class="c" d="M4,0,8,7H0Z" transform="translate(1765 2807)"/><path class="c" d="M4,0,8,7H0Z" transform="translate(1793 2807)"/><path class="c" d="M4,0,8,7H0Z" transform="translate(1821 2807)"/><path class="c" d="M4,0,8,7H0Z" transform="translate(1849 2807)"/><path class="c" d="M4,0,8,7H0Z" transform="translate(1877 2807)"/><path class="c" d="M4,0,8,7H0Z" transform="translate(29 2834)"/><path class="c" d="M4,0,8,7H0Z" transform="translate(57 2834)"/><path class="c" d="M4,0,8,7H0Z" transform="translate(85 2834)"/><path class="c" d="M4,0,8,7H0Z" transform="translate(113 2834)"/><path class="c" d="M4,0,8,7H0Z" transform="translate(141 2834)"/><path class="c" d="M4,0,8,7H0Z" transform="translate(169 2834)"/><path class="c" d="M4,0,8,7H0Z" transform="translate(197 2834)"/><path class="c" d="M4,0,8,7H0Z" transform="translate(225 2834)"/><path class="c" d="M4,0,8,7H0Z" transform="translate(253 2834)"/><path class="c" d="M4,0,8,7H0Z" transform="translate(281 2834)"/><path class="c" d="M4,0,8,7H0Z" transform="translate(309 2834)"/><path class="c" d="M4,0,8,7H0Z" transform="translate(337 2834)"/><path class="c" d="M4,0,8,7H0Z" transform="translate(365 2834)"/><path class="c" d="M4,0,8,7H0Z" transform="translate(393 2834)"/><path class="c" d="M4,0,8,7H0Z" transform="translate(421 2834)"/><path class="c" d="M4,0,8,7H0Z" transform="translate(449 2834)"/><path class="c" d="M4,0,8,7H0Z" transform="translate(477 2834)"/><path class="c" d="M4,0,8,7H0Z" transform="translate(505 2834)"/><path class="c" d="M4,0,8,7H0Z" transform="translate(533 2834)"/><path class="c" d="M4,0,8,7H0Z" transform="translate(561 2834)"/><path class="c" d="M4,0,8,7H0Z" transform="translate(589 2834)"/><path class="c" d="M4,0,8,7H0Z" transform="translate(617 2834)"/><path class="c" d="M4,0,8,7H0Z" transform="translate(645 2834)"/><path class="c" d="M4,0,8,7H0Z" transform="translate(673 2834)"/><path class="c" d="M4,0,8,7H0Z" transform="translate(701 2834)"/><path class="c" d="M4,0,8,7H0Z" transform="translate(729 2834)"/><path class="c" d="M4,0,8,7H0Z" transform="translate(757 2834)"/><path class="c" d="M4,0,8,7H0Z" transform="translate(785 2834)"/><path class="c" d="M4,0,8,7H0Z" transform="translate(813 2834)"/><path class="c" d="M4,0,8,7H0Z" transform="translate(841 2834)"/><path class="c" d="M4,0,8,7H0Z" transform="translate(869 2834)"/><path class="c" d="M4,0,8,7H0Z" transform="translate(897 2834)"/><path class="c" d="M4,0,8,7H0Z" transform="translate(925 2834)"/><path class="c" d="M4,0,8,7H0Z" transform="translate(953 2834)"/><path class="c" d="M4,0,8,7H0Z" transform="translate(981 2834)"/><path class="c" d="M4,0,8,7H0Z" transform="translate(1009 2834)"/><path class="c" d="M4,0,8,7H0Z" transform="translate(1037 2834)"/><path class="c" d="M4,0,8,7H0Z" transform="translate(1065 2834)"/><path class="c" d="M4,0,8,7H0Z" transform="translate(1093 2834)"/><path class="c" d="M4,0,8,7H0Z" transform="translate(1121 2834)"/><path class="c" d="M4,0,8,7H0Z" transform="translate(1149 2834)"/><path class="c" d="M4,0,8,7H0Z" transform="translate(1177 2834)"/><path class="c" d="M4,0,8,7H0Z" transform="translate(1205 2834)"/><path class="c" d="M4,0,8,7H0Z" transform="translate(1233 2834)"/><path class="c" d="M4,0,8,7H0Z" transform="translate(1261 2834)"/><path class="c" d="M4,0,8,7H0Z" transform="translate(1289 2834)"/><path class="c" d="M4,0,8,7H0Z" transform="translate(1317 2834)"/><path class="c" d="M4,0,8,7H0Z" transform="translate(1345 2834)"/><path class="c" d="M4,0,8,7H0Z" transform="translate(1373 2834)"/><path class="c" d="M4,0,8,7H0Z" transform="translate(1401 2834)"/><path class="c" d="M4,0,8,7H0Z" transform="translate(1429 2834)"/><path class="c" d="M4,0,8,7H0Z" transform="translate(1457 2834)"/><path class="c" d="M4,0,8,7H0Z" transform="translate(1485 2834)"/><path class="c" d="M4,0,8,7H0Z" transform="translate(1513 2834)"/><path class="c" d="M4,0,8,7H0Z" transform="translate(1541 2834)"/><path class="c" d="M4,0,8,7H0Z" transform="translate(1569 2834)"/><path class="c" d="M4,0,8,7H0Z" transform="translate(1597 2834)"/><path class="c" d="M4,0,8,7H0Z" transform="translate(1625 2834)"/><path class="c" d="M4,0,8,7H0Z" transform="translate(1653 2834)"/><path class="c" d="M4,0,8,7H0Z" transform="translate(1681 2834)"/><path class="c" d="M4,0,8,7H0Z" transform="translate(1709 2834)"/><path class="c" d="M4,0,8,7H0Z" transform="translate(1737 2834)"/><path class="c" d="M4,0,8,7H0Z" transform="translate(1765 2834)"/><path class="c" d="M4,0,8,7H0Z" transform="translate(1793 2834)"/><path class="c" d="M4,0,8,7H0Z" transform="translate(1821 2834)"/><path class="c" d="M4,0,8,7H0Z" transform="translate(1849 2834)"/><path class="c" d="M4,0,8,7H0Z" transform="translate(1877 2834)"/><path class="c" d="M4,0,8,7H0Z" transform="translate(29 2861)"/><path class="c" d="M4,0,8,7H0Z" transform="translate(57 2861)"/><path class="c" d="M4,0,8,7H0Z" transform="translate(85 2861)"/><path class="c" d="M4,0,8,7H0Z" transform="translate(113 2861)"/><path class="c" d="M4,0,8,7H0Z" transform="translate(141 2861)"/><path class="c" d="M4,0,8,7H0Z" transform="translate(169 2861)"/><path class="c" d="M4,0,8,7H0Z" transform="translate(197 2861)"/><path class="c" d="M4,0,8,7H0Z" transform="translate(225 2861)"/><path class="c" d="M4,0,8,7H0Z" transform="translate(253 2861)"/><path class="c" d="M4,0,8,7H0Z" transform="translate(281 2861)"/><path class="c" d="M4,0,8,7H0Z" transform="translate(309 2861)"/><path class="c" d="M4,0,8,7H0Z" transform="translate(337 2861)"/><path class="c" d="M4,0,8,7H0Z" transform="translate(365 2861)"/><path class="c" d="M4,0,8,7H0Z" transform="translate(393 2861)"/><path class="c" d="M4,0,8,7H0Z" transform="translate(421 2861)"/><path class="c" d="M4,0,8,7H0Z" transform="translate(449 2861)"/><path class="c" d="M4,0,8,7H0Z" transform="translate(477 2861)"/><path class="c" d="M4,0,8,7H0Z" transform="translate(505 2861)"/><path class="c" d="M4,0,8,7H0Z" transform="translate(533 2861)"/><path class="c" d="M4,0,8,7H0Z" transform="translate(561 2861)"/><path class="c" d="M4,0,8,7H0Z" transform="translate(589 2861)"/><path class="c" d="M4,0,8,7H0Z" transform="translate(617 2861)"/><path class="c" d="M4,0,8,7H0Z" transform="translate(645 2861)"/><path class="c" d="M4,0,8,7H0Z" transform="translate(673 2861)"/><path class="c" d="M4,0,8,7H0Z" transform="translate(701 2861)"/><path class="c" d="M4,0,8,7H0Z" transform="translate(729 2861)"/><path class="c" d="M4,0,8,7H0Z" transform="translate(757 2861)"/><path class="c" d="M4,0,8,7H0Z" transform="translate(785 2861)"/><path class="c" d="M4,0,8,7H0Z" transform="translate(813 2861)"/><path class="c" d="M4,0,8,7H0Z" transform="translate(841 2861)"/><path class="c" d="M4,0,8,7H0Z" transform="translate(869 2861)"/><path class="c" d="M4,0,8,7H0Z" transform="translate(897 2861)"/><path class="c" d="M4,0,8,7H0Z" transform="translate(925 2861)"/><path class="c" d="M4,0,8,7H0Z" transform="translate(953 2861)"/><path class="c" d="M4,0,8,7H0Z" transform="translate(981 2861)"/><path class="c" d="M4,0,8,7H0Z" transform="translate(1009 2861)"/><path class="c" d="M4,0,8,7H0Z" transform="translate(1037 2861)"/><path class="c" d="M4,0,8,7H0Z" transform="translate(1065 2861)"/><path class="c" d="M4,0,8,7H0Z" transform="translate(1093 2861)"/><path class="c" d="M4,0,8,7H0Z" transform="translate(1121 2861)"/><path class="c" d="M4,0,8,7H0Z" transform="translate(1149 2861)"/><path class="c" d="M4,0,8,7H0Z" transform="translate(1177 2861)"/><path class="c" d="M4,0,8,7H0Z" transform="translate(1205 2861)"/><path class="c" d="M4,0,8,7H0Z" transform="translate(1233 2861)"/><path class="c" d="M4,0,8,7H0Z" transform="translate(1261 2861)"/><path class="c" d="M4,0,8,7H0Z" transform="translate(1289 2861)"/><path class="c" d="M4,0,8,7H0Z" transform="translate(1317 2861)"/><path class="c" d="M4,0,8,7H0Z" transform="translate(1345 2861)"/><path class="c" d="M4,0,8,7H0Z" transform="translate(1373 2861)"/><path class="c" d="M4,0,8,7H0Z" transform="translate(1401 2861)"/><path class="c" d="M4,0,8,7H0Z" transform="translate(1429 2861)"/><path class="c" d="M4,0,8,7H0Z" transform="translate(1457 2861)"/><path class="c" d="M4,0,8,7H0Z" transform="translate(1485 2861)"/><path class="c" d="M4,0,8,7H0Z" transform="translate(1513 2861)"/><path class="c" d="M4,0,8,7H0Z" transform="translate(1541 2861)"/><path class="c" d="M4,0,8,7H0Z" transform="translate(1569 2861)"/><path class="c" d="M4,0,8,7H0Z" transform="translate(1597 2861)"/><path class="c" d="M4,0,8,7H0Z" transform="translate(1625 2861)"/><path class="c" d="M4,0,8,7H0Z" transform="translate(1653 2861)"/><path class="c" d="M4,0,8,7H0Z" transform="translate(1681 2861)"/><path class="c" d="M4,0,8,7H0Z" transform="translate(1709 2861)"/><path class="c" d="M4,0,8,7H0Z" transform="translate(1737 2861)"/><path class="c" d="M4,0,8,7H0Z" transform="translate(1765 2861)"/><path class="c" d="M4,0,8,7H0Z" transform="translate(1793 2861)"/><path class="c" d="M4,0,8,7H0Z" transform="translate(1821 2861)"/><path class="c" d="M4,0,8,7H0Z" transform="translate(1849 2861)"/><path class="c" d="M4,0,8,7H0Z" transform="translate(1877 2861)"/><path class="c" d="M4,0,8,7H0Z" transform="translate(29 2888)"/><path class="c" d="M4,0,8,7H0Z" transform="translate(57 2888)"/><path class="c" d="M4,0,8,7H0Z" transform="translate(85 2888)"/><path class="c" d="M4,0,8,7H0Z" transform="translate(113 2888)"/><path class="c" d="M4,0,8,7H0Z" transform="translate(141 2888)"/><path class="c" d="M4,0,8,7H0Z" transform="translate(169 2888)"/><path class="c" d="M4,0,8,7H0Z" transform="translate(197 2888)"/><path class="c" d="M4,0,8,7H0Z" transform="translate(225 2888)"/><path class="c" d="M4,0,8,7H0Z" transform="translate(253 2888)"/><path class="c" d="M4,0,8,7H0Z" transform="translate(281 2888)"/><path class="c" d="M4,0,8,7H0Z" transform="translate(309 2888)"/><path class="c" d="M4,0,8,7H0Z" transform="translate(337 2888)"/><path class="c" d="M4,0,8,7H0Z" transform="translate(365 2888)"/><path class="c" d="M4,0,8,7H0Z" transform="translate(393 2888)"/><path class="c" d="M4,0,8,7H0Z" transform="translate(421 2888)"/><path class="c" d="M4,0,8,7H0Z" transform="translate(449 2888)"/><path class="c" d="M4,0,8,7H0Z" transform="translate(477 2888)"/><path class="c" d="M4,0,8,7H0Z" transform="translate(505 2888)"/><path class="c" d="M4,0,8,7H0Z" transform="translate(533 2888)"/><path class="c" d="M4,0,8,7H0Z" transform="translate(561 2888)"/><path class="c" d="M4,0,8,7H0Z" transform="translate(589 2888)"/><path class="c" d="M4,0,8,7H0Z" transform="translate(617 2888)"/><path class="c" d="M4,0,8,7H0Z" transform="translate(645 2888)"/><path class="c" d="M4,0,8,7H0Z" transform="translate(673 2888)"/><path class="c" d="M4,0,8,7H0Z" transform="translate(701 2888)"/><path class="c" d="M4,0,8,7H0Z" transform="translate(729 2888)"/><path class="c" d="M4,0,8,7H0Z" transform="translate(757 2888)"/><path class="c" d="M4,0,8,7H0Z" transform="translate(785 2888)"/><path class="c" d="M4,0,8,7H0Z" transform="translate(813 2888)"/><path class="c" d="M4,0,8,7H0Z" transform="translate(841 2888)"/><path class="c" d="M4,0,8,7H0Z" transform="translate(869 2888)"/><path class="c" d="M4,0,8,7H0Z" transform="translate(897 2888)"/><path class="c" d="M4,0,8,7H0Z" transform="translate(925 2888)"/><path class="c" d="M4,0,8,7H0Z" transform="translate(953 2888)"/><path class="c" d="M4,0,8,7H0Z" transform="translate(981 2888)"/><path class="c" d="M4,0,8,7H0Z" transform="translate(1009 2888)"/><path class="c" d="M4,0,8,7H0Z" transform="translate(1037 2888)"/><path class="c" d="M4,0,8,7H0Z" transform="translate(1065 2888)"/><path class="c" d="M4,0,8,7H0Z" transform="translate(1093 2888)"/><path class="c" d="M4,0,8,7H0Z" transform="translate(1121 2888)"/><path class="c" d="M4,0,8,7H0Z" transform="translate(1149 2888)"/><path class="c" d="M4,0,8,7H0Z" transform="translate(1177 2888)"/><path class="c" d="M4,0,8,7H0Z" transform="translate(1205 2888)"/><path class="c" d="M4,0,8,7H0Z" transform="translate(1233 2888)"/><path class="c" d="M4,0,8,7H0Z" transform="translate(1261 2888)"/><path class="c" d="M4,0,8,7H0Z" transform="translate(1289 2888)"/><path class="c" d="M4,0,8,7H0Z" transform="translate(1317 2888)"/><path class="c" d="M4,0,8,7H0Z" transform="translate(1345 2888)"/><path class="c" d="M4,0,8,7H0Z" transform="translate(1373 2888)"/><path class="c" d="M4,0,8,7H0Z" transform="translate(1401 2888)"/><path class="c" d="M4,0,8,7H0Z" transform="translate(1429 2888)"/><path class="c" d="M4,0,8,7H0Z" transform="translate(1457 2888)"/><path class="c" d="M4,0,8,7H0Z" transform="translate(1485 2888)"/><path class="c" d="M4,0,8,7H0Z" transform="translate(1513 2888)"/><path class="c" d="M4,0,8,7H0Z" transform="translate(1541 2888)"/><path class="c" d="M4,0,8,7H0Z" transform="translate(1569 2888)"/><path class="c" d="M4,0,8,7H0Z" transform="translate(1597 2888)"/><path class="c" d="M4,0,8,7H0Z" transform="translate(1625 2888)"/><path class="c" d="M4,0,8,7H0Z" transform="translate(1653 2888)"/><path class="c" d="M4,0,8,7H0Z" transform="translate(1681 2888)"/><path class="c" d="M4,0,8,7H0Z" transform="translate(1709 2888)"/><path class="c" d="M4,0,8,7H0Z" transform="translate(1737 2888)"/><path class="c" d="M4,0,8,7H0Z" transform="translate(1765 2888)"/><path class="c" d="M4,0,8,7H0Z" transform="translate(1793 2888)"/><path class="c" d="M4,0,8,7H0Z" transform="translate(1821 2888)"/><path class="c" d="M4,0,8,7H0Z" transform="translate(1849 2888)"/><path class="c" d="M4,0,8,7H0Z" transform="translate(1877 2888)"/><path class="c" d="M4,0,8,7H0Z" transform="translate(29 2915)"/><path class="c" d="M4,0,8,7H0Z" transform="translate(57 2915)"/><path class="c" d="M4,0,8,7H0Z" transform="translate(85 2915)"/><path class="c" d="M4,0,8,7H0Z" transform="translate(113 2915)"/><path class="c" d="M4,0,8,7H0Z" transform="translate(141 2915)"/><path class="c" d="M4,0,8,7H0Z" transform="translate(169 2915)"/><path class="c" d="M4,0,8,7H0Z" transform="translate(197 2915)"/><path class="c" d="M4,0,8,7H0Z" transform="translate(225 2915)"/><path class="c" d="M4,0,8,7H0Z" transform="translate(253 2915)"/><path class="c" d="M4,0,8,7H0Z" transform="translate(281 2915)"/><path class="c" d="M4,0,8,7H0Z" transform="translate(309 2915)"/><path class="c" d="M4,0,8,7H0Z" transform="translate(337 2915)"/><path class="c" d="M4,0,8,7H0Z" transform="translate(365 2915)"/><path class="c" d="M4,0,8,7H0Z" transform="translate(393 2915)"/><path class="c" d="M4,0,8,7H0Z" transform="translate(421 2915)"/><path class="c" d="M4,0,8,7H0Z" transform="translate(449 2915)"/><path class="c" d="M4,0,8,7H0Z" transform="translate(477 2915)"/><path class="c" d="M4,0,8,7H0Z" transform="translate(505 2915)"/><path class="c" d="M4,0,8,7H0Z" transform="translate(533 2915)"/><path class="c" d="M4,0,8,7H0Z" transform="translate(561 2915)"/><path class="c" d="M4,0,8,7H0Z" transform="translate(589 2915)"/><path class="c" d="M4,0,8,7H0Z" transform="translate(617 2915)"/><path class="c" d="M4,0,8,7H0Z" transform="translate(645 2915)"/><path class="c" d="M4,0,8,7H0Z" transform="translate(673 2915)"/><path class="c" d="M4,0,8,7H0Z" transform="translate(701 2915)"/><path class="c" d="M4,0,8,7H0Z" transform="translate(729 2915)"/><path class="c" d="M4,0,8,7H0Z" transform="translate(757 2915)"/><path class="c" d="M4,0,8,7H0Z" transform="translate(785 2915)"/><path class="c" d="M4,0,8,7H0Z" transform="translate(813 2915)"/><path class="c" d="M4,0,8,7H0Z" transform="translate(841 2915)"/><path class="c" d="M4,0,8,7H0Z" transform="translate(869 2915)"/><path class="c" d="M4,0,8,7H0Z" transform="translate(897 2915)"/><path class="c" d="M4,0,8,7H0Z" transform="translate(925 2915)"/><path class="c" d="M4,0,8,7H0Z" transform="translate(953 2915)"/><path class="c" d="M4,0,8,7H0Z" transform="translate(981 2915)"/><path class="c" d="M4,0,8,7H0Z" transform="translate(1009 2915)"/><path class="c" d="M4,0,8,7H0Z" transform="translate(1037 2915)"/><path class="c" d="M4,0,8,7H0Z" transform="translate(1065 2915)"/><path class="c" d="M4,0,8,7H0Z" transform="translate(1093 2915)"/><path class="c" d="M4,0,8,7H0Z" transform="translate(1121 2915)"/><path class="c" d="M4,0,8,7H0Z" transform="translate(1149 2915)"/><path class="c" d="M4,0,8,7H0Z" transform="translate(1177 2915)"/><path class="c" d="M4,0,8,7H0Z" transform="translate(1205 2915)"/><path class="c" d="M4,0,8,7H0Z" transform="translate(1233 2915)"/><path class="c" d="M4,0,8,7H0Z" transform="translate(1261 2915)"/><path class="c" d="M4,0,8,7H0Z" transform="translate(1289 2915)"/><path class="c" d="M4,0,8,7H0Z" transform="translate(1317 2915)"/><path class="c" d="M4,0,8,7H0Z" transform="translate(1345 2915)"/><path class="c" d="M4,0,8,7H0Z" transform="translate(1373 2915)"/><path class="c" d="M4,0,8,7H0Z" transform="translate(1401 2915)"/><path class="c" d="M4,0,8,7H0Z" transform="translate(1429 2915)"/><path class="c" d="M4,0,8,7H0Z" transform="translate(1457 2915)"/><path class="c" d="M4,0,8,7H0Z" transform="translate(1485 2915)"/><path class="c" d="M4,0,8,7H0Z" transform="translate(1513 2915)"/><path class="c" d="M4,0,8,7H0Z" transform="translate(1541 2915)"/><path class="c" d="M4,0,8,7H0Z" transform="translate(1569 2915)"/><path class="c" d="M4,0,8,7H0Z" transform="translate(1597 2915)"/><path class="c" d="M4,0,8,7H0Z" transform="translate(1625 2915)"/><path class="c" d="M4,0,8,7H0Z" transform="translate(1653 2915)"/><path class="c" d="M4,0,8,7H0Z" transform="translate(1681 2915)"/><path class="c" d="M4,0,8,7H0Z" transform="translate(1709 2915)"/><path class="c" d="M4,0,8,7H0Z" transform="translate(1737 2915)"/><path class="c" d="M4,0,8,7H0Z" transform="translate(1765 2915)"/><path class="c" d="M4,0,8,7H0Z" transform="translate(1793 2915)"/><path class="c" d="M4,0,8,7H0Z" transform="translate(1821 2915)"/><path class="c" d="M4,0,8,7H0Z" transform="translate(1849 2915)"/><path class="c" d="M4,0,8,7H0Z" transform="translate(1877 2915)"/><path class="c" d="M4,0,8,7H0Z" transform="translate(29 2942)"/><path class="c" d="M4,0,8,7H0Z" transform="translate(57 2942)"/><path class="c" d="M4,0,8,7H0Z" transform="translate(85 2942)"/><path class="c" d="M4,0,8,7H0Z" transform="translate(113 2942)"/><path class="c" d="M4,0,8,7H0Z" transform="translate(141 2942)"/><path class="c" d="M4,0,8,7H0Z" transform="translate(169 2942)"/><path class="c" d="M4,0,8,7H0Z" transform="translate(197 2942)"/><path class="c" d="M4,0,8,7H0Z" transform="translate(225 2942)"/><path class="c" d="M4,0,8,7H0Z" transform="translate(253 2942)"/><path class="c" d="M4,0,8,7H0Z" transform="translate(281 2942)"/><path class="c" d="M4,0,8,7H0Z" transform="translate(309 2942)"/><path class="c" d="M4,0,8,7H0Z" transform="translate(337 2942)"/><path class="c" d="M4,0,8,7H0Z" transform="translate(365 2942)"/><path class="c" d="M4,0,8,7H0Z" transform="translate(393 2942)"/><path class="c" d="M4,0,8,7H0Z" transform="translate(421 2942)"/><path class="c" d="M4,0,8,7H0Z" transform="translate(449 2942)"/><path class="c" d="M4,0,8,7H0Z" transform="translate(477 2942)"/><path class="c" d="M4,0,8,7H0Z" transform="translate(505 2942)"/><path class="c" d="M4,0,8,7H0Z" transform="translate(533 2942)"/><path class="c" d="M4,0,8,7H0Z" transform="translate(561 2942)"/><path class="c" d="M4,0,8,7H0Z" transform="translate(589 2942)"/><path class="c" d="M4,0,8,7H0Z" transform="translate(617 2942)"/><path class="c" d="M4,0,8,7H0Z" transform="translate(645 2942)"/><path class="c" d="M4,0,8,7H0Z" transform="translate(673 2942)"/><path class="c" d="M4,0,8,7H0Z" transform="translate(701 2942)"/><path class="c" d="M4,0,8,7H0Z" transform="translate(729 2942)"/><path class="c" d="M4,0,8,7H0Z" transform="translate(757 2942)"/><path class="c" d="M4,0,8,7H0Z" transform="translate(785 2942)"/><path class="c" d="M4,0,8,7H0Z" transform="translate(813 2942)"/><path class="c" d="M4,0,8,7H0Z" transform="translate(841 2942)"/><path class="c" d="M4,0,8,7H0Z" transform="translate(869 2942)"/><path class="c" d="M4,0,8,7H0Z" transform="translate(897 2942)"/><path class="c" d="M4,0,8,7H0Z" transform="translate(925 2942)"/><path class="c" d="M4,0,8,7H0Z" transform="translate(953 2942)"/><path class="c" d="M4,0,8,7H0Z" transform="translate(981 2942)"/><path class="c" d="M4,0,8,7H0Z" transform="translate(1009 2942)"/><path class="c" d="M4,0,8,7H0Z" transform="translate(1037 2942)"/><path class="c" d="M4,0,8,7H0Z" transform="translate(1065 2942)"/><path class="c" d="M4,0,8,7H0Z" transform="translate(1093 2942)"/><path class="c" d="M4,0,8,7H0Z" transform="translate(1121 2942)"/><path class="c" d="M4,0,8,7H0Z" transform="translate(1149 2942)"/><path class="c" d="M4,0,8,7H0Z" transform="translate(1177 2942)"/><path class="c" d="M4,0,8,7H0Z" transform="translate(1205 2942)"/><path class="c" d="M4,0,8,7H0Z" transform="translate(1233 2942)"/><path class="c" d="M4,0,8,7H0Z" transform="translate(1261 2942)"/><path class="c" d="M4,0,8,7H0Z" transform="translate(1289 2942)"/><path class="c" d="M4,0,8,7H0Z" transform="translate(1317 2942)"/><path class="c" d="M4,0,8,7H0Z" transform="translate(1345 2942)"/><path class="c" d="M4,0,8,7H0Z" transform="translate(1373 2942)"/><path class="c" d="M4,0,8,7H0Z" transform="translate(1401 2942)"/><path class="c" d="M4,0,8,7H0Z" transform="translate(1429 2942)"/><path class="c" d="M4,0,8,7H0Z" transform="translate(1457 2942)"/><path class="c" d="M4,0,8,7H0Z" transform="translate(1485 2942)"/><path class="c" d="M4,0,8,7H0Z" transform="translate(1513 2942)"/><path class="c" d="M4,0,8,7H0Z" transform="translate(1541 2942)"/><path class="c" d="M4,0,8,7H0Z" transform="translate(1569 2942)"/><path class="c" d="M4,0,8,7H0Z" transform="translate(1597 2942)"/><path class="c" d="M4,0,8,7H0Z" transform="translate(1625 2942)"/><path class="c" d="M4,0,8,7H0Z" transform="translate(1653 2942)"/><path class="c" d="M4,0,8,7H0Z" transform="translate(1681 2942)"/><path class="c" d="M4,0,8,7H0Z" transform="translate(1709 2942)"/><path class="c" d="M4,0,8,7H0Z" transform="translate(1737 2942)"/><path class="c" d="M4,0,8,7H0Z" transform="translate(1765 2942)"/><path class="c" d="M4,0,8,7H0Z" transform="translate(1793 2942)"/><path class="c" d="M4,0,8,7H0Z" transform="translate(1821 2942)"/><path class="c" d="M4,0,8,7H0Z" transform="translate(1849 2942)"/><path class="c" d="M4,0,8,7H0Z" transform="translate(1877 2942)"/><path class="c" d="M4,0,8,7H0Z" transform="translate(29 2969)"/><path class="c" d="M4,0,8,7H0Z" transform="translate(57 2969)"/><path class="c" d="M4,0,8,7H0Z" transform="translate(85 2969)"/><path class="c" d="M4,0,8,7H0Z" transform="translate(113 2969)"/><path class="c" d="M4,0,8,7H0Z" transform="translate(141 2969)"/><path class="c" d="M4,0,8,7H0Z" transform="translate(169 2969)"/><path class="c" d="M4,0,8,7H0Z" transform="translate(197 2969)"/><path class="c" d="M4,0,8,7H0Z" transform="translate(225 2969)"/><path class="c" d="M4,0,8,7H0Z" transform="translate(253 2969)"/><path class="c" d="M4,0,8,7H0Z" transform="translate(281 2969)"/><path class="c" d="M4,0,8,7H0Z" transform="translate(309 2969)"/><path class="c" d="M4,0,8,7H0Z" transform="translate(337 2969)"/><path class="c" d="M4,0,8,7H0Z" transform="translate(365 2969)"/><path class="c" d="M4,0,8,7H0Z" transform="translate(393 2969)"/><path class="c" d="M4,0,8,7H0Z" transform="translate(421 2969)"/><path class="c" d="M4,0,8,7H0Z" transform="translate(449 2969)"/><path class="c" d="M4,0,8,7H0Z" transform="translate(477 2969)"/><path class="c" d="M4,0,8,7H0Z" transform="translate(505 2969)"/><path class="c" d="M4,0,8,7H0Z" transform="translate(533 2969)"/><path class="c" d="M4,0,8,7H0Z" transform="translate(561 2969)"/><path class="c" d="M4,0,8,7H0Z" transform="translate(589 2969)"/><path class="c" d="M4,0,8,7H0Z" transform="translate(617 2969)"/><path class="c" d="M4,0,8,7H0Z" transform="translate(645 2969)"/><path class="c" d="M4,0,8,7H0Z" transform="translate(673 2969)"/><path class="c" d="M4,0,8,7H0Z" transform="translate(701 2969)"/><path class="c" d="M4,0,8,7H0Z" transform="translate(729 2969)"/><path class="c" d="M4,0,8,7H0Z" transform="translate(757 2969)"/><path class="c" d="M4,0,8,7H0Z" transform="translate(785 2969)"/><path class="c" d="M4,0,8,7H0Z" transform="translate(813 2969)"/><path class="c" d="M4,0,8,7H0Z" transform="translate(841 2969)"/><path class="c" d="M4,0,8,7H0Z" transform="translate(869 2969)"/><path class="c" d="M4,0,8,7H0Z" transform="translate(897 2969)"/><path class="c" d="M4,0,8,7H0Z" transform="translate(925 2969)"/><path class="c" d="M4,0,8,7H0Z" transform="translate(953 2969)"/><path class="c" d="M4,0,8,7H0Z" transform="translate(981 2969)"/><path class="c" d="M4,0,8,7H0Z" transform="translate(1009 2969)"/><path class="c" d="M4,0,8,7H0Z" transform="translate(1037 2969)"/><path class="c" d="M4,0,8,7H0Z" transform="translate(1065 2969)"/><path class="c" d="M4,0,8,7H0Z" transform="translate(1093 2969)"/><path class="c" d="M4,0,8,7H0Z" transform="translate(1121 2969)"/><path class="c" d="M4,0,8,7H0Z" transform="translate(1149 2969)"/><path class="c" d="M4,0,8,7H0Z" transform="translate(1177 2969)"/><path class="c" d="M4,0,8,7H0Z" transform="translate(1205 2969)"/><path class="c" d="M4,0,8,7H0Z" transform="translate(1233 2969)"/><path class="c" d="M4,0,8,7H0Z" transform="translate(1261 2969)"/><path class="c" d="M4,0,8,7H0Z" transform="translate(1289 2969)"/><path class="c" d="M4,0,8,7H0Z" transform="translate(1317 2969)"/><path class="c" d="M4,0,8,7H0Z" transform="translate(1345 2969)"/><path class="c" d="M4,0,8,7H0Z" transform="translate(1373 2969)"/><path class="c" d="M4,0,8,7H0Z" transform="translate(1401 2969)"/><path class="c" d="M4,0,8,7H0Z" transform="translate(1429 2969)"/><path class="c" d="M4,0,8,7H0Z" transform="translate(1457 2969)"/><path class="c" d="M4,0,8,7H0Z" transform="translate(1485 2969)"/><path class="c" d="M4,0,8,7H0Z" transform="translate(1513 2969)"/><path class="c" d="M4,0,8,7H0Z" transform="translate(1541 2969)"/><path class="c" d="M4,0,8,7H0Z" transform="translate(1569 2969)"/><path class="c" d="M4,0,8,7H0Z" transform="translate(1597 2969)"/><path class="c" d="M4,0,8,7H0Z" transform="translate(1625 2969)"/><path class="c" d="M4,0,8,7H0Z" transform="translate(1653 2969)"/><path class="c" d="M4,0,8,7H0Z" transform="translate(1681 2969)"/><path class="c" d="M4,0,8,7H0Z" transform="translate(1709 2969)"/><path class="c" d="M4,0,8,7H0Z" transform="translate(1737 2969)"/><path class="c" d="M4,0,8,7H0Z" transform="translate(1765 2969)"/><path class="c" d="M4,0,8,7H0Z" transform="translate(1793 2969)"/><path class="c" d="M4,0,8,7H0Z" transform="translate(1821 2969)"/><path class="c" d="M4,0,8,7H0Z" transform="translate(1849 2969)"/><path class="c" d="M4,0,8,7H0Z" transform="translate(1877 2969)"/><path class="c" d="M4,0,8,7H0Z" transform="translate(29 2996)"/><path class="c" d="M4,0,8,7H0Z" transform="translate(57 2996)"/><path class="c" d="M4,0,8,7H0Z" transform="translate(85 2996)"/><path class="c" d="M4,0,8,7H0Z" transform="translate(113 2996)"/><path class="c" d="M4,0,8,7H0Z" transform="translate(141 2996)"/><path class="c" d="M4,0,8,7H0Z" transform="translate(169 2996)"/><path class="c" d="M4,0,8,7H0Z" transform="translate(197 2996)"/><path class="c" d="M4,0,8,7H0Z" transform="translate(225 2996)"/><path class="c" d="M4,0,8,7H0Z" transform="translate(253 2996)"/><path class="c" d="M4,0,8,7H0Z" transform="translate(281 2996)"/><path class="c" d="M4,0,8,7H0Z" transform="translate(309 2996)"/><path class="c" d="M4,0,8,7H0Z" transform="translate(337 2996)"/><path class="c" d="M4,0,8,7H0Z" transform="translate(365 2996)"/><path class="c" d="M4,0,8,7H0Z" transform="translate(393 2996)"/><path class="c" d="M4,0,8,7H0Z" transform="translate(421 2996)"/><path class="c" d="M4,0,8,7H0Z" transform="translate(449 2996)"/><path class="c" d="M4,0,8,7H0Z" transform="translate(477 2996)"/><path class="c" d="M4,0,8,7H0Z" transform="translate(505 2996)"/><path class="c" d="M4,0,8,7H0Z" transform="translate(533 2996)"/><path class="c" d="M4,0,8,7H0Z" transform="translate(561 2996)"/><path class="c" d="M4,0,8,7H0Z" transform="translate(589 2996)"/><path class="c" d="M4,0,8,7H0Z" transform="translate(617 2996)"/><path class="c" d="M4,0,8,7H0Z" transform="translate(645 2996)"/><path class="c" d="M4,0,8,7H0Z" transform="translate(673 2996)"/><path class="c" d="M4,0,8,7H0Z" transform="translate(701 2996)"/><path class="c" d="M4,0,8,7H0Z" transform="translate(729 2996)"/><path class="c" d="M4,0,8,7H0Z" transform="translate(757 2996)"/><path class="c" d="M4,0,8,7H0Z" transform="translate(785 2996)"/><path class="c" d="M4,0,8,7H0Z" transform="translate(813 2996)"/><path class="c" d="M4,0,8,7H0Z" transform="translate(841 2996)"/><path class="c" d="M4,0,8,7H0Z" transform="translate(869 2996)"/><path class="c" d="M4,0,8,7H0Z" transform="translate(897 2996)"/><path class="c" d="M4,0,8,7H0Z" transform="translate(925 2996)"/><path class="c" d="M4,0,8,7H0Z" transform="translate(953 2996)"/><path class="c" d="M4,0,8,7H0Z" transform="translate(981 2996)"/><path class="c" d="M4,0,8,7H0Z" transform="translate(1009 2996)"/><path class="c" d="M4,0,8,7H0Z" transform="translate(1037 2996)"/><path class="c" d="M4,0,8,7H0Z" transform="translate(1065 2996)"/><path class="c" d="M4,0,8,7H0Z" transform="translate(1093 2996)"/><path class="c" d="M4,0,8,7H0Z" transform="translate(1121 2996)"/><path class="c" d="M4,0,8,7H0Z" transform="translate(1149 2996)"/><path class="c" d="M4,0,8,7H0Z" transform="translate(1177 2996)"/><path class="c" d="M4,0,8,7H0Z" transform="translate(1205 2996)"/><path class="c" d="M4,0,8,7H0Z" transform="translate(1233 2996)"/><path class="c" d="M4,0,8,7H0Z" transform="translate(1261 2996)"/><path class="c" d="M4,0,8,7H0Z" transform="translate(1289 2996)"/><path class="c" d="M4,0,8,7H0Z" transform="translate(1317 2996)"/><path class="c" d="M4,0,8,7H0Z" transform="translate(1345 2996)"/><path class="c" d="M4,0,8,7H0Z" transform="translate(1373 2996)"/><path class="c" d="M4,0,8,7H0Z" transform="translate(1401 2996)"/><path class="c" d="M4,0,8,7H0Z" transform="translate(1429 2996)"/><path class="c" d="M4,0,8,7H0Z" transform="translate(1457 2996)"/><path class="c" d="M4,0,8,7H0Z" transform="translate(1485 2996)"/><path class="c" d="M4,0,8,7H0Z" transform="translate(1513 2996)"/><path class="c" d="M4,0,8,7H0Z" transform="translate(1541 2996)"/><path class="c" d="M4,0,8,7H0Z" transform="translate(1569 2996)"/><path class="c" d="M4,0,8,7H0Z" transform="translate(1597 2996)"/><path class="c" d="M4,0,8,7H0Z" transform="translate(1625 2996)"/><path class="c" d="M4,0,8,7H0Z" transform="translate(1653 2996)"/><path class="c" d="M4,0,8,7H0Z" transform="translate(1681 2996)"/><path class="c" d="M4,0,8,7H0Z" transform="translate(1709 2996)"/><path class="c" d="M4,0,8,7H0Z" transform="translate(1737 2996)"/><path class="c" d="M4,0,8,7H0Z" transform="translate(1765 2996)"/><path class="c" d="M4,0,8,7H0Z" transform="translate(1793 2996)"/><path class="c" d="M4,0,8,7H0Z" transform="translate(1821 2996)"/><path class="c" d="M4,0,8,7H0Z" transform="translate(1849 2996)"/><path class="c" d="M4,0,8,7H0Z" transform="translate(1877 2996)"/><path class="c" d="M4,0,8,7H0Z" transform="translate(29 3023)"/><path class="c" d="M4,0,8,7H0Z" transform="translate(57 3023)"/><path class="c" d="M4,0,8,7H0Z" transform="translate(85 3023)"/><path class="c" d="M4,0,8,7H0Z" transform="translate(113 3023)"/><path class="c" d="M4,0,8,7H0Z" transform="translate(141 3023)"/><path class="c" d="M4,0,8,7H0Z" transform="translate(169 3023)"/><path class="c" d="M4,0,8,7H0Z" transform="translate(197 3023)"/><path class="c" d="M4,0,8,7H0Z" transform="translate(225 3023)"/><path class="c" d="M4,0,8,7H0Z" transform="translate(253 3023)"/><path class="c" d="M4,0,8,7H0Z" transform="translate(281 3023)"/><path class="c" d="M4,0,8,7H0Z" transform="translate(309 3023)"/><path class="c" d="M4,0,8,7H0Z" transform="translate(337 3023)"/><path class="c" d="M4,0,8,7H0Z" transform="translate(365 3023)"/><path class="c" d="M4,0,8,7H0Z" transform="translate(393 3023)"/><path class="c" d="M4,0,8,7H0Z" transform="translate(421 3023)"/><path class="c" d="M4,0,8,7H0Z" transform="translate(449 3023)"/><path class="c" d="M4,0,8,7H0Z" transform="translate(477 3023)"/><path class="c" d="M4,0,8,7H0Z" transform="translate(505 3023)"/><path class="c" d="M4,0,8,7H0Z" transform="translate(533 3023)"/><path class="c" d="M4,0,8,7H0Z" transform="translate(561 3023)"/><path class="c" d="M4,0,8,7H0Z" transform="translate(589 3023)"/><path class="c" d="M4,0,8,7H0Z" transform="translate(617 3023)"/><path class="c" d="M4,0,8,7H0Z" transform="translate(645 3023)"/><path class="c" d="M4,0,8,7H0Z" transform="translate(673 3023)"/><path class="c" d="M4,0,8,7H0Z" transform="translate(701 3023)"/><path class="c" d="M4,0,8,7H0Z" transform="translate(729 3023)"/><path class="c" d="M4,0,8,7H0Z" transform="translate(757 3023)"/><path class="c" d="M4,0,8,7H0Z" transform="translate(785 3023)"/><path class="c" d="M4,0,8,7H0Z" transform="translate(813 3023)"/><path class="c" d="M4,0,8,7H0Z" transform="translate(841 3023)"/><path class="c" d="M4,0,8,7H0Z" transform="translate(869 3023)"/><path class="c" d="M4,0,8,7H0Z" transform="translate(897 3023)"/><path class="c" d="M4,0,8,7H0Z" transform="translate(925 3023)"/><path class="c" d="M4,0,8,7H0Z" transform="translate(953 3023)"/><path class="c" d="M4,0,8,7H0Z" transform="translate(981 3023)"/><path class="c" d="M4,0,8,7H0Z" transform="translate(1009 3023)"/><path class="c" d="M4,0,8,7H0Z" transform="translate(1037 3023)"/><path class="c" d="M4,0,8,7H0Z" transform="translate(1065 3023)"/><path class="c" d="M4,0,8,7H0Z" transform="translate(1093 3023)"/><path class="c" d="M4,0,8,7H0Z" transform="translate(1121 3023)"/><path class="c" d="M4,0,8,7H0Z" transform="translate(1149 3023)"/><path class="c" d="M4,0,8,7H0Z" transform="translate(1177 3023)"/><path class="c" d="M4,0,8,7H0Z" transform="translate(1205 3023)"/><path class="c" d="M4,0,8,7H0Z" transform="translate(1233 3023)"/><path class="c" d="M4,0,8,7H0Z" transform="translate(1261 3023)"/><path class="c" d="M4,0,8,7H0Z" transform="translate(1289 3023)"/><path class="c" d="M4,0,8,7H0Z" transform="translate(1317 3023)"/><path class="c" d="M4,0,8,7H0Z" transform="translate(1345 3023)"/><path class="c" d="M4,0,8,7H0Z" transform="translate(1373 3023)"/><path class="c" d="M4,0,8,7H0Z" transform="translate(1401 3023)"/><path class="c" d="M4,0,8,7H0Z" transform="translate(1429 3023)"/><path class="c" d="M4,0,8,7H0Z" transform="translate(1457 3023)"/><path class="c" d="M4,0,8,7H0Z" transform="translate(1485 3023)"/><path class="c" d="M4,0,8,7H0Z" transform="translate(1513 3023)"/><path class="c" d="M4,0,8,7H0Z" transform="translate(1541 3023)"/><path class="c" d="M4,0,8,7H0Z" transform="translate(1569 3023)"/><path class="c" d="M4,0,8,7H0Z" transform="translate(1597 3023)"/><path class="c" d="M4,0,8,7H0Z" transform="translate(1625 3023)"/><path class="c" d="M4,0,8,7H0Z" transform="translate(1653 3023)"/><path class="c" d="M4,0,8,7H0Z" transform="translate(1681 3023)"/><path class="c" d="M4,0,8,7H0Z" transform="translate(1709 3023)"/><path class="c" d="M4,0,8,7H0Z" transform="translate(1737 3023)"/><path class="c" d="M4,0,8,7H0Z" transform="translate(1765 3023)"/><path class="c" d="M4,0,8,7H0Z" transform="translate(1793 3023)"/><path class="c" d="M4,0,8,7H0Z" transform="translate(1821 3023)"/><path class="c" d="M4,0,8,7H0Z" transform="translate(1849 3023)"/><path class="c" d="M4,0,8,7H0Z" transform="translate(1877 3023)"/><path class="c" d="M4,0,8,7H0Z" transform="translate(29 3050)"/><path class="c" d="M4,0,8,7H0Z" transform="translate(57 3050)"/><path class="c" d="M4,0,8,7H0Z" transform="translate(85 3050)"/><path class="c" d="M4,0,8,7H0Z" transform="translate(113 3050)"/><path class="c" d="M4,0,8,7H0Z" transform="translate(141 3050)"/><path class="c" d="M4,0,8,7H0Z" transform="translate(169 3050)"/><path class="c" d="M4,0,8,7H0Z" transform="translate(197 3050)"/><path class="c" d="M4,0,8,7H0Z" transform="translate(225 3050)"/><path class="c" d="M4,0,8,7H0Z" transform="translate(253 3050)"/><path class="c" d="M4,0,8,7H0Z" transform="translate(281 3050)"/><path class="c" d="M4,0,8,7H0Z" transform="translate(309 3050)"/><path class="c" d="M4,0,8,7H0Z" transform="translate(337 3050)"/><path class="c" d="M4,0,8,7H0Z" transform="translate(365 3050)"/><path class="c" d="M4,0,8,7H0Z" transform="translate(393 3050)"/><path class="c" d="M4,0,8,7H0Z" transform="translate(421 3050)"/><path class="c" d="M4,0,8,7H0Z" transform="translate(449 3050)"/><path class="c" d="M4,0,8,7H0Z" transform="translate(477 3050)"/><path class="c" d="M4,0,8,7H0Z" transform="translate(505 3050)"/><path class="c" d="M4,0,8,7H0Z" transform="translate(533 3050)"/><path class="c" d="M4,0,8,7H0Z" transform="translate(561 3050)"/><path class="c" d="M4,0,8,7H0Z" transform="translate(589 3050)"/><path class="c" d="M4,0,8,7H0Z" transform="translate(617 3050)"/><path class="c" d="M4,0,8,7H0Z" transform="translate(645 3050)"/><path class="c" d="M4,0,8,7H0Z" transform="translate(673 3050)"/><path class="c" d="M4,0,8,7H0Z" transform="translate(701 3050)"/><path class="c" d="M4,0,8,7H0Z" transform="translate(729 3050)"/><path class="c" d="M4,0,8,7H0Z" transform="translate(757 3050)"/><path class="c" d="M4,0,8,7H0Z" transform="translate(785 3050)"/><path class="c" d="M4,0,8,7H0Z" transform="translate(813 3050)"/><path class="c" d="M4,0,8,7H0Z" transform="translate(841 3050)"/><path class="c" d="M4,0,8,7H0Z" transform="translate(869 3050)"/><path class="c" d="M4,0,8,7H0Z" transform="translate(897 3050)"/><path class="c" d="M4,0,8,7H0Z" transform="translate(925 3050)"/><path class="c" d="M4,0,8,7H0Z" transform="translate(953 3050)"/><path class="c" d="M4,0,8,7H0Z" transform="translate(981 3050)"/><path class="c" d="M4,0,8,7H0Z" transform="translate(1009 3050)"/><path class="c" d="M4,0,8,7H0Z" transform="translate(1037 3050)"/><path class="c" d="M4,0,8,7H0Z" transform="translate(1065 3050)"/><path class="c" d="M4,0,8,7H0Z" transform="translate(1093 3050)"/><path class="c" d="M4,0,8,7H0Z" transform="translate(1121 3050)"/><path class="c" d="M4,0,8,7H0Z" transform="translate(1149 3050)"/><path class="c" d="M4,0,8,7H0Z" transform="translate(1177 3050)"/><path class="c" d="M4,0,8,7H0Z" transform="translate(1205 3050)"/><path class="c" d="M4,0,8,7H0Z" transform="translate(1233 3050)"/><path class="c" d="M4,0,8,7H0Z" transform="translate(1261 3050)"/><path class="c" d="M4,0,8,7H0Z" transform="translate(1289 3050)"/><path class="c" d="M4,0,8,7H0Z" transform="translate(1317 3050)"/><path class="c" d="M4,0,8,7H0Z" transform="translate(1345 3050)"/><path class="c" d="M4,0,8,7H0Z" transform="translate(1373 3050)"/><path class="c" d="M4,0,8,7H0Z" transform="translate(1401 3050)"/><path class="c" d="M4,0,8,7H0Z" transform="translate(1429 3050)"/><path class="c" d="M4,0,8,7H0Z" transform="translate(1457 3050)"/><path class="c" d="M4,0,8,7H0Z" transform="translate(1485 3050)"/><path class="c" d="M4,0,8,7H0Z" transform="translate(1513 3050)"/><path class="c" d="M4,0,8,7H0Z" transform="translate(1541 3050)"/><path class="c" d="M4,0,8,7H0Z" transform="translate(1569 3050)"/><path class="c" d="M4,0,8,7H0Z" transform="translate(1597 3050)"/><path class="c" d="M4,0,8,7H0Z" transform="translate(1625 3050)"/><path class="c" d="M4,0,8,7H0Z" transform="translate(1653 3050)"/><path class="c" d="M4,0,8,7H0Z" transform="translate(1681 3050)"/><path class="c" d="M4,0,8,7H0Z" transform="translate(1709 3050)"/><path class="c" d="M4,0,8,7H0Z" transform="translate(1737 3050)"/><path class="c" d="M4,0,8,7H0Z" transform="translate(1765 3050)"/><path class="c" d="M4,0,8,7H0Z" transform="translate(1793 3050)"/><path class="c" d="M4,0,8,7H0Z" transform="translate(1821 3050)"/><path class="c" d="M4,0,8,7H0Z" transform="translate(1849 3050)"/><path class="c" d="M4,0,8,7H0Z" transform="translate(1877 3050)"/><path class="c" d="M4,0,8,7H0Z" transform="translate(29 3077)"/><path class="c" d="M4,0,8,7H0Z" transform="translate(57 3077)"/><path class="c" d="M4,0,8,7H0Z" transform="translate(85 3077)"/><path class="c" d="M4,0,8,7H0Z" transform="translate(113 3077)"/><path class="c" d="M4,0,8,7H0Z" transform="translate(141 3077)"/><path class="c" d="M4,0,8,7H0Z" transform="translate(169 3077)"/><path class="c" d="M4,0,8,7H0Z" transform="translate(197 3077)"/><path class="c" d="M4,0,8,7H0Z" transform="translate(225 3077)"/><path class="c" d="M4,0,8,7H0Z" transform="translate(253 3077)"/><path class="c" d="M4,0,8,7H0Z" transform="translate(281 3077)"/><path class="c" d="M4,0,8,7H0Z" transform="translate(309 3077)"/><path class="c" d="M4,0,8,7H0Z" transform="translate(337 3077)"/><path class="c" d="M4,0,8,7H0Z" transform="translate(365 3077)"/><path class="c" d="M4,0,8,7H0Z" transform="translate(393 3077)"/><path class="c" d="M4,0,8,7H0Z" transform="translate(421 3077)"/><path class="c" d="M4,0,8,7H0Z" transform="translate(449 3077)"/><path class="c" d="M4,0,8,7H0Z" transform="translate(477 3077)"/><path class="c" d="M4,0,8,7H0Z" transform="translate(505 3077)"/><path class="c" d="M4,0,8,7H0Z" transform="translate(533 3077)"/><path class="c" d="M4,0,8,7H0Z" transform="translate(561 3077)"/><path class="c" d="M4,0,8,7H0Z" transform="translate(589 3077)"/><path class="c" d="M4,0,8,7H0Z" transform="translate(617 3077)"/><path class="c" d="M4,0,8,7H0Z" transform="translate(645 3077)"/><path class="c" d="M4,0,8,7H0Z" transform="translate(673 3077)"/><path class="c" d="M4,0,8,7H0Z" transform="translate(701 3077)"/><path class="c" d="M4,0,8,7H0Z" transform="translate(729 3077)"/><path class="c" d="M4,0,8,7H0Z" transform="translate(757 3077)"/><path class="c" d="M4,0,8,7H0Z" transform="translate(785 3077)"/><path class="c" d="M4,0,8,7H0Z" transform="translate(813 3077)"/><path class="c" d="M4,0,8,7H0Z" transform="translate(841 3077)"/><path class="c" d="M4,0,8,7H0Z" transform="translate(869 3077)"/><path class="c" d="M4,0,8,7H0Z" transform="translate(897 3077)"/><path class="c" d="M4,0,8,7H0Z" transform="translate(925 3077)"/><path class="c" d="M4,0,8,7H0Z" transform="translate(953 3077)"/><path class="c" d="M4,0,8,7H0Z" transform="translate(981 3077)"/><path class="c" d="M4,0,8,7H0Z" transform="translate(1009 3077)"/><path class="c" d="M4,0,8,7H0Z" transform="translate(1037 3077)"/><path class="c" d="M4,0,8,7H0Z" transform="translate(1065 3077)"/><path class="c" d="M4,0,8,7H0Z" transform="translate(1093 3077)"/><path class="c" d="M4,0,8,7H0Z" transform="translate(1121 3077)"/><path class="c" d="M4,0,8,7H0Z" transform="translate(1149 3077)"/><path class="c" d="M4,0,8,7H0Z" transform="translate(1177 3077)"/><path class="c" d="M4,0,8,7H0Z" transform="translate(1205 3077)"/><path class="c" d="M4,0,8,7H0Z" transform="translate(1233 3077)"/><path class="c" d="M4,0,8,7H0Z" transform="translate(1261 3077)"/><path class="c" d="M4,0,8,7H0Z" transform="translate(1289 3077)"/><path class="c" d="M4,0,8,7H0Z" transform="translate(1317 3077)"/><path class="c" d="M4,0,8,7H0Z" transform="translate(1345 3077)"/><path class="c" d="M4,0,8,7H0Z" transform="translate(1373 3077)"/><path class="c" d="M4,0,8,7H0Z" transform="translate(1401 3077)"/><path class="c" d="M4,0,8,7H0Z" transform="translate(1429 3077)"/><path class="c" d="M4,0,8,7H0Z" transform="translate(1457 3077)"/><path class="c" d="M4,0,8,7H0Z" transform="translate(1485 3077)"/><path class="c" d="M4,0,8,7H0Z" transform="translate(1513 3077)"/><path class="c" d="M4,0,8,7H0Z" transform="translate(1541 3077)"/><path class="c" d="M4,0,8,7H0Z" transform="translate(1569 3077)"/><path class="c" d="M4,0,8,7H0Z" transform="translate(1597 3077)"/><path class="c" d="M4,0,8,7H0Z" transform="translate(1625 3077)"/><path class="c" d="M4,0,8,7H0Z" transform="translate(1653 3077)"/><path class="c" d="M4,0,8,7H0Z" transform="translate(1681 3077)"/><path class="c" d="M4,0,8,7H0Z" transform="translate(1709 3077)"/><path class="c" d="M4,0,8,7H0Z" transform="translate(1737 3077)"/><path class="c" d="M4,0,8,7H0Z" transform="translate(1765 3077)"/><path class="c" d="M4,0,8,7H0Z" transform="translate(1793 3077)"/><path class="c" d="M4,0,8,7H0Z" transform="translate(1821 3077)"/><path class="c" d="M4,0,8,7H0Z" transform="translate(1849 3077)"/><path class="c" d="M4,0,8,7H0Z" transform="translate(1877 3077)"/></g></g></svg>